<svg width="18" height="19" viewBox="0 0 18 19" fill="none" xmlns="http://www.w3.org/2000/svg">
<path d="M16.9 18.975L10.325 12.4C9.825 12.8333 9.24167 13.1708 8.575 13.4125C7.90833 13.6542 7.2 13.775 6.45 13.775C4.65 13.775 3.125 13.15 1.875 11.9C0.625 10.65 0 9.14167 0 7.375C0 5.60833 0.625 4.1 1.875 2.85C3.125 1.6 4.64167 0.974998 6.425 0.974998C8.19167 0.974998 9.69583 1.6 10.9375 2.85C12.1792 4.1 12.8 5.60833 12.8 7.375C12.8 8.09167 12.6833 8.78333 12.45 9.45C12.2167 10.1167 11.8667 10.7417 11.4 11.325L18 17.875L16.9 18.975ZM6.425 12.275C7.775 12.275 8.925 11.7958 9.875 10.8375C10.825 9.87916 11.3 8.725 11.3 7.375C11.3 6.025 10.825 4.87083 9.875 3.9125C8.925 2.95417 7.775 2.475 6.425 2.475C5.05833 2.475 3.89583 2.95417 2.9375 3.9125C1.97917 4.87083 1.5 6.025 1.5 7.375C1.5 8.725 1.97917 9.87916 2.9375 10.8375C3.89583 11.7958 5.05833 12.275 6.425 12.275Z" fill="black"/>
</svg>
